<svg class="hide-for-md svg-inline logo-small svg-inline--default" aria-hidden="true" xmlns="http://www.w3.org/2000/svg" width="81" height="24" viewBox="0 0 81 24">
  <path fill="#000" fill-rule="nonzero" d="M48.029 23.696c-.57-.115-1.045-.422-1.238-.8-.079-.155-.156-.515-.127-.592.014-.037.099-.049.36-.049h.34l.023.142c.088.553.6.838 1.504.836.592-.001 1.108-.15 1.256-.36.166-.24.134-.545-.077-.721-.172-.143-.446-.224-1.249-.368-.993-.179-1.167-.22-1.4-.33-.391-.187-.562-.44-.563-.838-.003-.897.93-1.418 2.293-1.28.465.047.72.11 1.004.252.365.18.626.541.681.94l.023.165h-.364c-.324 0-.364-.007-.364-.06-.001-.14-.17-.424-.313-.529-.56-.408-1.857-.33-2.14.13-.115.185-.112.454.006.582.146.16.33.214 1.328.394 1.212.22 1.495.315 1.731.59.186.215.232.35.232.68 0 .272-.013.337-.093.49-.118.227-.289.376-.599.525-.385.184-.788.253-1.462.25a5.744 5.744 0 0 1-.792-.049zm-18.887-2.153v-2.1h1.415c1.59 0 1.735.016 2.089.23.277.168.343.237.467.49.092.19.107.258.106.481-.004.498-.296.9-.806 1.107l-.255.104-1.112.012-1.111.011v1.766h-.793v-2.1zm2.746-.242c.372-.112.543-.324.544-.678 0-.26-.1-.42-.338-.537-.24-.118-.595-.156-1.461-.157h-.698v1.424h.89c.688 0 .929-.012 1.063-.052zm1.307 2.233c.053-.104.739-1.512 1.59-3.266l.4-.825h.872l.314.668c.806 1.72 1.629 3.493 1.629 3.512 0 .011-.184.021-.41.021h-.408l-.27-.608-.27-.607h-1.07l-1.07.001-.276.606-.276.606-.406.001-.406.001.057-.11zm2.794-2.511c-.21-.487-.39-.886-.4-.885-.016 0-.757 1.56-.819 1.724-.014.038.13.046.792.046h.809l-.382-.885zm2.976.52v-2.1h1.492c1.587 0 1.738.012 2.139.168.446.174.677.501.677.96 0 .411-.196.738-.553.92l-.145.076.174.08c.203.095.37.302.4.497.011.07.035.36.053.645.035.538.07.654.207.698.039.013.07.053.07.09 0 .063-.028.067-.464.067h-.465l-.02-.095a2.136 2.136 0 0 0-.037-.146 7.25 7.25 0 0 1-.047-.562c-.031-.53-.051-.607-.202-.769-.168-.182-.333-.207-1.479-.225l-1.042-.016V23.644h-.758v-2.1zm3.024-.275c.223-.07.404-.225.458-.39.058-.176.027-.512-.059-.628-.108-.148-.322-.249-.602-.286-.14-.018-.661-.033-1.159-.034l-.904-.001v1.432l1.042-.017c.84-.015 1.078-.03 1.224-.076zm2.662.275v-2.1h.758V23.644h-.758v-2.1zm24.814-1.29l-.44-.031-.284-.021v-1.934l.566.02c.642.023.956-.014 1.37-.161.678-.242 1.202-.728 1.58-1.466.158-.31.375-.897.43-1.167l.023-.113-.235.017c-.13.01-.573.026-.985.036l-.75.02-.271-.566-.642-1.329c-.204-.42-.483-.998-.62-1.285-.138-.286-.44-.911-.673-1.388l-.672-1.39c-.137-.286-.432-.895-.654-1.353-1.298-2.673-1.706-3.524-1.706-3.562 0-.019.822-.032 2.076-.031h2.077l.394.911a910.135 910.135 0 0 0 2.139 4.921c.232.525.527 1.213.656 1.528.441 1.078.778 1.853.81 1.863.018.006.18-.47.359-1.056.179-.587.424-1.357.546-1.71.533-1.554 1-2.927 1.436-4.218l.6-1.771.133-.382 1.986-.009c1.093-.005 1.986-.002 1.986.007 0 .01-.176.49-.392 1.068l-.79 2.128a35333.86 35333.86 0 0 1-1.978 5.347c-1.4 3.796-1.511 4.07-1.952 4.791-.956 1.56-2.053 2.126-4.417 2.274a17.01 17.01 0 0 1-1.706.012zM5.586 15.566c-1.544-.062-2.856-.248-3.682-.523-1.136-.378-1.763-1.16-1.883-2.348a3.188 3.188 0 0 1-.015-.543l.023-.174h2.012c1.106 0 2.011.004 2.011.009 0 .005-.023.095-.051.2-.103.385-.051.675.163.92.415.475 1.43.711 3.063.711 1.664 0 2.776-.229 3.3-.68.33-.285.423-.787.227-1.227-.16-.36-.478-.587-1.032-.734-.239-.064-.428-.078-1.413-.104-3.34-.09-4.409-.166-5.558-.4-.918-.188-1.398-.41-1.835-.847-.234-.234-.325-.356-.44-.59C.224 8.727.18 8.493.176 7.69c-.001-.625.006-.721.078-.97.043-.152.136-.386.205-.521.162-.315.592-.757.91-.935.628-.35 1.575-.56 3.203-.705.856-.076 4.498-.09 5.321-.018 1.537.131 2.444.321 3.068.642.537.277.982.849 1.136 1.463.056.223.121.696.121.879v.113H10.406l-.061-.285c-.116-.544-.322-.815-.707-.93-.374-.112-.723-.142-1.932-.163-1.227-.02-1.733.008-2.28.128-.476.104-.798.256-1.03.485-.233.23-.29.38-.285.754.008.539.193.855.564.962.36.104 1.498.19 3.513.265 3.069.113 4.774.37 5.552.833.319.19.62.525.786.877.228.483.262.671.262 1.484 0 .8-.044 1.038-.277 1.504-.652 1.3-2.109 1.827-5.53 2.002-.594.03-2.741.038-3.395.012zm24.366-.013c-3.42-.19-4.717-.768-5.154-2.294-.053-.187-.078-.396-.092-.769l-.019-.512h2.021c1.111 0 2.02.01 2.02.021 0 .012-.024.117-.054.235-.215.828.384 1.313 1.881 1.521.5.07 2.38.06 2.915-.016 1.094-.154 1.763-.464 1.982-.918.12-.249.114-.658-.014-.92-.174-.358-.487-.576-1.043-.725-.236-.063-.427-.077-1.41-.103-2.768-.075-3.74-.128-4.704-.259-1.618-.22-2.42-.56-2.916-1.24-.341-.467-.49-.96-.52-1.714-.047-1.18.26-1.925 1.015-2.469.611-.44 1.653-.687 3.558-.844.725-.06 3.652-.083 4.532-.036 2.977.158 4.15.583 4.668 1.689.139.295.239.714.266 1.117l.022.322L37 7.629l-1.907-.008-.08-.328c-.223-.92-.517-1.023-2.907-1.025-1.132-.001-1.382.008-1.704.063-.665.113-1.154.322-1.392.595-.17.195-.223.387-.205.754.025.541.186.806.555.912.351.101 1.505.188 3.504.262 3.144.116 4.875.384 5.609.865.325.214.546.466.717.817.185.378.244.603.294 1.11.075.752-.048 1.462-.354 2.042-.155.293-.63.774-.945.958-.794.461-1.94.72-3.873.876-.607.048-3.651.07-4.36.03zm25.865.015c-2.176-.117-3.438-.352-4.36-.811-.611-.305-.947-.637-1.274-1.26-.285-.543-.463-1.179-.592-2.109-.087-.629-.087-2.35 0-2.93.181-1.217.566-2.084 1.175-2.649.3-.278.52-.418.95-.605.738-.32 1.75-.53 3.205-.662.683-.063 3.666-.063 4.326 0 1.796.17 2.99.493 3.668.994.699.517 1.146 1.38 1.35 2.606.057.351.125 1.482.133 2.248v.13H53.512l-.023.127c-.042.225.012 1.085.087 1.392.128.524.368.897.726 1.127.541.347 1.886.514 3.585.444 1.751-.072 2.251-.258 2.483-.923.04-.113.08-.326.091-.474l.02-.27h3.923l-.022.391c-.037.666-.126.98-.388 1.368-.66.98-2.115 1.56-4.522 1.803-.505.051-3.059.095-3.654.063zm4.677-7.157c-.053-1.193-.362-1.616-1.324-1.812-.933-.19-2.823-.225-3.835-.07-.66.1-1.115.281-1.329.528-.256.296-.418.814-.453 1.44l-.02.391h6.982l-.021-.477zm-42.69 1.623V4.618H21.733V15.45H17.804v-5.416zM42.48 7.725V0H46.409v15.45H42.48V7.725zM17.804 1.094V0H21.733V2.187H17.804V1.094z" />
</svg>